<?xml version="1.0" standalone="no"?>
<!DOCTYPE svg PUBLIC "-//W3C//DTD SVG 20010904//EN"
 "http://www.w3.org/TR/2001/REC-SVG-20010904/DTD/svg10.dtd">
<svg version="1.0" xmlns="http://www.w3.org/2000/svg"
 width="384.000000pt" height="384.000000pt" viewBox="0 0 384.000000 384.000000"
 preserveAspectRatio="xMidYMid meet">
<metadata>
Created by potrace 1.11, written by Peter Selinger 2001-2013
</metadata>
<g transform="translate(0.000000,384.000000) scale(0.100000,-0.100000)"
fill="#000000" stroke="none">
<path d="M395 3826 c-192 -49 -345 -206 -384 -394 -15 -74 -15 -2950 0 -3024
40 -193 211 -362 404 -398 43 -8 479 -10 1540 -8 l1480 3 60 22 c168 64 300
214 334 381 15 74 15 2950 0 3024 -34 167 -166 317 -334 381 l-60 22 -1495 2
c-1175 1 -1506 -1 -1545 -11z m2536 -572 c276 -81 437 -358 399 -686 -15 -134
-48 -264 -118 -463 -235 -672 -460 -1127 -641 -1297 -84 -80 -132 -97 -223
-80 -88 16 -144 47 -157 84 -16 46 -13 200 9 498 11 146 20 298 20 337 l0 73
-51 25 c-48 25 -52 25 -76 10 -44 -29 -233 -228 -272 -287 -48 -71 -51 -93
-60 -436 l-6 -274 -25 -20 c-21 -17 -33 -18 -85 -12 -77 9 -142 28 -166 50
-24 21 -24 79 -4 359 22 293 30 594 16 628 -19 48 -40 46 -91 -10 -86 -94
-279 -401 -319 -509 -27 -72 -41 -185 -41 -334 0 -71 -4 -140 -10 -154 -13
-34 -43 -40 -137 -26 -92 14 -159 40 -167 67 -3 10 1 102 9 203 9 102 20 340
25 530 5 193 14 362 20 383 9 30 29 52 93 103 140 111 211 143 257 114 32 -20
6 -270 -40 -394 -18 -45 -49 -331 -38 -342 2 -2 49 76 103 174 184 332 264
447 354 504 53 33 109 37 163 10 l35 -18 -38 59 c-144 223 -125 501 47 673
149 148 361 181 585 89 13 -5 20 4 34 44 49 149 193 284 346 325 72 20 183 20
250 0z"/>
<path d="M1782 1960 c6 -19 9 -97 6 -206 l-3 -175 20 28 c11 15 57 74 102 130
l82 102 -45 26 c-25 15 -68 45 -97 69 -76 61 -78 62 -65 26z"/>
<path d="M2471 1393 c-27 -255 -36 -410 -27 -447 20 -79 147 39 277 258 67
112 144 265 137 271 -4 4 -356 135 -362 135 -1 0 -12 -98 -25 -217z"/>
</g>
</svg>
